<svg width="88" height="60" viewBox="0 0 88 60" fill="none" xmlns="http://www.w3.org/2000/svg">
<path fill-rule="evenodd" clip-rule="evenodd" d="M19.4917 25.0276C16.1903 28.4799 16.1903 34.0771 19.4917 37.5294L40.5435 59.5432L44.702 55.1948L24.5597 34.1321C23.0525 32.5561 23.0525 30.0009 24.5597 28.4249C26.0668 26.8489 28.5105 26.8489 30.0177 28.4249L50.1598 49.4876L54.3183 45.1391L33.2663 23.1253C29.9649 19.6731 24.6124 19.6731 21.3109 23.1253L19.4917 25.0276Z" fill="#FE5F40"/>
<path fill-rule="evenodd" clip-rule="evenodd" d="M38.726 4.91593C35.4247 8.36817 35.4247 13.9654 38.726 17.4176L53.8002 33.1807C57.1015 36.6329 62.4542 36.6329 65.7556 33.1807L67.575 31.2781C70.8764 27.8259 70.8764 22.2288 67.575 18.7765L52.5007 3.0135C49.1993 -0.438744 43.8466 -0.438744 40.5452 3.0135L38.726 4.91593ZM43.7941 8.31314C42.2869 9.88916 42.2869 12.4444 43.7941 14.0204L57.049 27.8811C58.5561 29.4571 60.9996 29.4571 62.5068 27.8811C64.0139 26.3051 64.0139 23.7497 62.5068 22.1737L49.2519 8.31314C47.7447 6.73711 45.3012 6.73711 43.7941 8.31314Z" fill="#FE5F40"/>
<path fill-rule="evenodd" clip-rule="evenodd" d="M29.1088 14.9711C25.8075 18.4233 25.8075 24.0205 29.1088 27.4727L32.0976 30.5983L36.2561 26.2498L34.1768 24.0757C32.6697 22.4997 32.6697 19.9443 34.1768 18.3683C35.684 16.7923 38.1277 16.7923 39.6348 18.3683L41.7139 20.5426L45.8724 16.1941L42.8835 13.0687C39.5821 9.61643 34.2296 9.61643 30.928 13.0687L29.1088 14.9711Z" fill="#FE5F40"/>
<path d="M4.1584 12.7976L0 17.146L40.5444 59.543L44.7028 55.1946L4.1584 12.7976Z" fill="#FEC84D"/>
<path d="M53.2795 3.82932L49.1211 8.17773L82.9081 43.5086L87.0665 39.1602L53.2795 3.82932Z" fill="#00C0BB"/>
<path fill-rule="evenodd" clip-rule="evenodd" d="M63.6543 34.7885C64.411 34.3801 65.1211 33.8444 65.7555 33.181L67.5749 31.2784C70.8762 27.8262 70.8762 22.2291 67.5749 18.7768L64.5859 15.6514L60.4276 19.9997L62.5067 22.174C64.0138 23.75 64.0138 26.3054 62.5067 27.8814C60.9995 29.4574 58.556 29.4574 57.0488 27.8814L63.6543 34.7885Z" fill="#00C0BB"/>
</svg>
