<svg width="38" height="34" xmlns="http://www.w3.org/2000/svg" fill="none">

 <g>
  <title>Layer 1</title>
  <path id="svg_1" fill="white" d="m38,14.3219l-0.4929,1.5812c-0.2627,0.8201 -1.1203,2.1712 -2.7195,2.3105c0.1744,0.7396 0.5644,1.569 1.4248,1.9268l1.2373,0.5089l-0.6682,1.1656c-0.1504,0.2481 -0.9281,1.3911 -2.5502,1.3911c-0.2778,-0.0009 -0.5461,-0.0287 -0.8031,-0.0833c-0.0663,0.2895 -0.1476,0.5799 -0.2439,0.8685c-0.3788,1.1317 -0.0522,1.9198 -0.0381,1.9523l0.5968,1.2588l-1.3703,0.3629c-0.0108,0.0038 -0.4276,0.1163 -0.9346,0.1163c-0.2336,0 -0.4577,-0.0245 -0.6664,-0.0739c-0.1588,-0.0381 -0.3125,-0.0871 -0.4596,-0.1469c-0.1776,0.3187 -0.3914,0.6078 -0.6405,0.8648c-0.8726,0.8996 -2.1118,1.3553 -3.6827,1.3553l-1.125,-0.0146l2.3068,0.9632l-1.7246,0.8393c-0.6118,0.2994 -1.3971,0.6826 -2.1893,0.9731l0.2213,0.6021l-0.6071,0.2773c-0.0541,0.0244 -1.2096,0.5418 -3.1325,0.6557c0,0 -0.462,0.0231 -0.719,0.0231c-0.2575,0 -0.7246,-0.0217 -0.7246,-0.0217c-1.9356,-0.1111 -3.1005,-0.6327 -3.1546,-0.6571l-0.6052,-0.2768l0.2194,-0.6012c-0.7711,-0.282 -1.5277,-0.6506 -2.1663,-0.9622l-1.757,-0.8507l2.3143,-0.9641l-1.1203,0.0146l-0.0051,0c-1.5686,0 -2.80781,-0.4552 -3.68186,-1.3539c-0.24999,-0.2594 -0.46428,-0.5489 -0.64097,-0.8662c-0.14661,0.0598 -0.29933,0.1088 -0.4577,0.1459c-0.20911,0.0504 -0.43373,0.0749 -0.66728,0.0749c-0.51597,0 -0.92809,-0.1139 -0.94501,-0.1191l-1.36417,-0.3601l0.61136,-1.2824l0.00045,-0.0011c0.01388,-0.0351 0.32291,-0.8153 -0.04932,-1.9266c-0.0968,-0.2886 -0.17857,-0.5795 -0.24389,-0.8695c-0.25658,0.0546 -0.52255,0.0824 -0.79792,0.0833c-1.27301,0 -2.16774,-0.7429 -2.54837,-1.3779l-0.67528,-1.1778l1.23824,-0.5108c0.85807,-0.3569 1.24858,-1.1868 1.42479,-1.9268c-1.62028,-0.1455 -2.46613,-1.4952 -2.71989,-2.31l-0.50328,-1.5808l1.66116,0.0522c0.12124,-0.0005 1.12311,-0.0296 2.09302,-0.7353c-0.0225,0.0019 -0.04483,0.0042 -0.06713,0.0065c-0.05081,0.0052 -0.10148,0.0104 -0.15373,0.0104c-0.99858,0 -1.96802,-0.6035 -2.35664,-1.4673l-0.69783,-1.5596c1.03194,0.0193 1.69922,-0.1012 1.69922,-0.1012l0.00028,-0.0001l0.00166,-0.0003c0.03891,-0.0067 0.64968,-0.1116 1.35425,-0.83195c0.52678,-0.5376 1.17762,-0.82241 1.88297,-0.82241c0.30826,0 0.58411,0.05555 0.82048,0.13134c-0.03666,-0.12663 -0.07096,-0.25374 -0.09211,-0.38508c-0.20394,-1.31671 0.54699,-2.3632 0.69971,-2.56045l1.24623,-1.53184l0.7622,1.79876c0,0 0.19079,0.41286 0.53195,0.61528c0.10432,-0.52584 0.35996,-1.11758 0.90511,-1.68202c1.0244,-1.06391 2.2734,-1.2235 2.9271,-1.2235c0.3045,0 0.5192,0.03343 0.5902,0.04473l0.0484,0.00753l1.4135,0.27916c-0.0846,-0.33047 -0.266,-0.90715 -0.5991,-1.42593l-0.8186,-1.27669l2.0559,0.23491l0.6536,-1.39345l1.2716,0.6553l1.1697,-1.16089l1.1733,1.16089l1.2684,-0.6553l0.6555,1.39345l2.0564,-0.23397l-0.8172,1.27528c-0.3327,0.51925 -0.5151,1.09734 -0.6006,1.42875l1.4812,-0.29187c0.0522,-0.00847 0.2688,-0.0419 0.5719,-0.0419c0.6536,0 1.9032,0.15959 2.9299,1.22397c0.5442,0.56491 0.7994,1.15571 0.9027,1.68155c0.3431,-0.20431 0.5358,-0.62375 0.5381,-0.6294l0.7608,-1.78841l1.2274,1.52243c0.0005,-0.00094 0.9375,1.11193 0.7138,2.57175c-0.0211,0.13228 -0.0554,0.26033 -0.093,0.38696c0.2378,-0.07532 0.5136,-0.13134 0.8224,-0.13134c0.7048,0 1.3557,0.28481 1.8815,0.82241c0.7331,0.75085 1.3675,0.83325 1.3741,0.83375c0,0 0.8045,0.1115 1.6851,0.0998l-0.7016,1.5596c-0.3877,0.8638 -1.3567,1.4673 -2.3571,1.4673c-0.0522,0 -0.103,-0.0052 -0.1537,-0.0105c-0.0219,-0.0023 -0.0438,-0.0046 -0.0658,-0.0064c0.9723,0.7057 1.9742,0.7348 2.1118,0.7348l1.6316,-0.0517zm-35.82194,-3.7944c-0.00003,0 -0.00002,0.0001 0.00001,0.0001l-0.00001,-0.0001z" clip-rule="evenodd" fill-rule="evenodd"/>
  <path id="svg_2" fill="#FFDD2D" d="m22.1378,20.5525l-8.7697,0l0,-5.0705c0,-0.491 -0.1438,-0.9848 -0.3134,-1.441l3.9525,0c0.3759,0.3738 0.7434,0.6073 1.0935,0.7349c-0.0451,0.1807 -0.1048,0.5531 0.0634,0.9245c0.1382,0.2999 0.3872,0.5306 0.7481,0.6845c0.039,0.3705 0.2735,0.9274 0.9197,1.1731c-0.2839,0.2858 -0.5588,0.556 -0.6701,0.6643l-2.6236,-0.0419c-0.0592,-0.0297 -0.1602,-0.0965 -0.2058,-0.1911c-0.0027,-0.0069 -0.0063,-0.0122 -0.0098,-0.0175c-0.0034,-0.005 -0.0068,-0.0101 -0.0095,-0.0164l0.4281,0.0692c0.0089,0.0009 0.0183,0.0009 0.0272,0.0009l0.0001,0c0.0827,0 0.155,-0.057 0.1687,-0.1417c0.0141,-0.0956 -0.0494,-0.1826 -0.142,-0.1972l-0.5267,-0.0829l0.5841,-2.0219l-0.5536,-1.167l-0.8863,0.9396l-0.0545,2.1015l-0.5958,-0.0942c-0.0921,-0.0178 -0.18,0.049 -0.196,0.1427c-0.0146,0.0922 0.0484,0.1798 0.1419,0.1963l0.25,0.0386c-0.0893,0.0504 -0.1485,0.0913 -0.1555,0.0965l-0.0503,0.0362l-0.0141,0.0622c-0.1452,0.5898 0.1828,1.1496 0.5371,1.4l-0.0127,0.0744c-0.0145,0.0909 0.0066,0.1789 0.0602,0.2533c0.0521,0.0753 0.1306,0.1209 0.2204,0.1365c0.0178,0.0037 0.0371,0.0052 0.055,0.0052c0.1532,0 0.2871,-0.106 0.3242,-0.2623c0.1325,0.0161 0.2533,0.0193 0.336,0.0193l0.0695,0l3.4417,0.6233l0.0588,-0.0395c0.2735,-0.1911 1.3195,-0.9542 1.6625,-1.2075c0.0936,0.081 0.1988,0.1544 0.3266,0.2156c-0.1113,0.3728 -0.1179,0.9467 0.3201,1.4zm-8.7706,0.342l11.2752,0l0.0024,4.2486c0,1.4085 -0.8257,2.3919 -2.1259,2.7121l0.2171,-1.1365c0.0122,-0.0673 0.0263,-0.1454 0.0352,-0.2113c0.062,0.0263 0.1269,0.0475 0.1974,0.0607c0.0808,0.0155 0.156,0.0231 0.2246,0.0231c0.3322,0 0.5263,-0.1756 0.6551,-0.3249l0.1673,-0.1953l-0.1368,-0.2137c-0.0122,-0.0208 -0.3153,-0.5 -0.5465,-0.8276c-0.0461,-0.0641 -0.0902,-0.1286 -0.1344,-0.1973l-0.0009,-0.0013c-0.2644,-0.3966 -0.5948,-0.8922 -1.2575,-0.8922l-0.0597,0.0014c-0.109,0.0071 -0.203,0.0283 -0.2796,0.0575c-0.2077,-0.0975 -0.4234,-0.1488 -0.6471,-0.1488c-0.2744,0 -0.5052,0.0763 -0.6598,0.129c-0.0139,0.004 -0.0272,0.0081 -0.0399,0.0121c-0.0278,0.0086 -0.0528,0.0164 -0.0747,0.0199l-1.2397,-0.1219c-0.016,-0.0028 -0.0667,-0.033 -0.1283,-0.1059l0,-0.0066l0.2684,-0.1074c-0.0757,-0.8958 -0.9338,-1.4466 -1.4122,-1.6335c-0.0211,-0.0894 -0.0643,-0.1789 -0.1395,-0.2514l-0.2665,-0.2537l-0.234,0.2815l-0.1161,0.1431l-1.7368,-0.7146l1.1302,1.4212l-0.4455,0.677c-0.1635,0.1737 0.0164,0.3474 0.0164,0.3474l0.461,0.3187l0.4775,-0.1789c0.0107,0 0.0206,0.0016 0.0307,0.0032c0.0055,0.0009 0.011,0.0018 0.0167,0.0024c-0.0134,0.0406 -0.0286,0.1479 -0.0428,0.2484c-0.0112,0.0791 -0.0218,0.154 -0.0305,0.189l-0.8289,-0.1634l-0.8708,0.4929c-0.4473,0.3295 -0.5084,0.8742 -0.3425,1.247l0.0963,0.2119l0.1372,0.2989l0.305,-0.1266c0.0047,-0.0005 0.0084,-0.0024 0.0108,-0.0043c-0.1095,0.3503 -0.0644,0.6836 0.1302,0.902l0.1851,0.2326l0.2467,0.3121l0.2702,-0.2905c0.079,-0.08 0.337,-0.369 0.4168,-0.6167l0.0583,-0.1892l-0.1316,-0.1455l-0.0221,-0.0263l0.1485,-0.2453l1.0823,0.2552l0.2434,0.0564l0.1292,-0.2142l0.0705,-0.1167c0.0132,-0.0245 0.0164,-0.0287 0.0667,-0.0287c0.0381,0 0.0766,0.0042 0.1175,0.0136c0.4093,0.0768 0.7852,0.1158 1.1194,0.1158c0.3247,0 0.5183,-0.0127 0.7485,-0.0894c0,0 0.5813,0.6609 0.6011,0.6859l-0.3553,1.1006l-0.016,0.0659c-0.6738,0.0551 -1.0018,0.2029 -1.3985,0.5993c-0.5756,-0.572 -0.984,-0.6327 -2.5309,-0.6327c-1.8525,0 -3.1076,-1.0874 -3.1076,-2.8255l0,-4.2486z" clip-rule="evenodd" fill-rule="evenodd"/>
  <path id="svg_3" fill="black" d="m16.2932,3.08823l0.2951,0.03107l0.1279,-0.26974l0.3717,-0.797l0.6907,0.35778l0.2674,0.13699l0.9582,-0.95187l0.7467,0.7405l0.2138,0.21137l0.2679,-0.13699l0.6865,-0.35778l0.3774,0.797l0.125,0.26974l0.2951,-0.03107l0.2824,-0.03389c-0.1292,0.2914 -0.2246,0.56867 -0.2928,0.79793c-0.7453,-0.41615 -1.7138,-0.65294 -2.702,-0.65294c-0.9835,0 -1.9511,0.23679 -2.6992,0.65294c-0.0691,-0.22926 -0.1635,-0.50653 -0.2928,-0.79793l0.281,0.03389zm2.711,0.52678c1.3223,0 2.3801,0.43922 2.9647,0.90668c0,0 0.1734,-1.04697 0.766,-1.97059l-1.0649,0.12145l-0.5573,-1.18584l-1.07,0.55267l-1.0385,-1.02766l-1.0352,1.02766l-1.0724,-0.55267l-0.5564,1.18584l-1.0648,-0.12145c0.593,0.92362 0.766,1.97059 0.766,1.97059c0.5883,-0.46746 1.6428,-0.90668 2.9628,-0.90668zm3.201,28.03349l-0.5151,-1.4193c0.6128,-0.1869 1.6664,-0.5889 2.1386,-0.8563l-0.3148,1.0328l1.0667,0.3554c-0.6452,0.3244 -1.4276,0.6271 -2.3754,0.8874zm-3.1978,1.2758c-1.2416,0 -2.6579,-0.2863 -3.0757,-0.435l0.6344,-1.7188c0.5259,0.154 1.6203,0.3173 2.4145,0.3122l0.0502,0c0.7942,0.0051 1.8872,-0.1582 2.4159,-0.3122l0.633,1.7188c-0.4173,0.1487 -1.8341,0.435 -3.0723,0.435zm-5.5766,-2.1632l1.0686,-0.3554l-0.3162,-1.0328c0.4713,0.2674 1.5267,0.6694 2.1381,0.8563l-0.5155,1.4193c-0.9445,-0.2603 -1.7302,-0.563 -2.375,-0.8874zm11.1977,-0.3154l-0.6494,-0.2495l0.1795,-0.6727l0.1974,-0.7325c0,0 -1.1509,0.6257 -2.773,1.095c-0.4601,0.1318 -0.8083,0.1925 -0.8083,0.1925l0,0.499c0,0 -0.8675,0.1507 -1.7439,0.1507l-0.0502,0c-0.8774,0 -1.7434,-0.1507 -1.7434,-0.1507l0,-0.499c0,0 -0.3492,-0.0607 -0.8088,-0.1925c-1.6217,-0.4693 -2.7715,-1.095 -2.7715,-1.095l0.1945,0.7325l0.1833,0.6727l-0.6518,0.2495l-0.7227,0.2702c0.0781,0.0379 0.1591,0.0774 0.2427,0.1181l0,0c0.8012,0.3905 1.8324,0.893 2.7835,1.1539l-0.2476,0.6784c0,0 1.3322,0.6077 3.5516,0.6134l0,0.0014l0.0301,0l0,-0.0014c2.2218,-0.0057 3.5531,-0.6134 3.5531,-0.6134l-0.2491,-0.6784c0.9628,-0.264 2.0088,-0.7753 2.8112,-1.1677l0.2137,-0.1043l-0.7209,-0.2702zm9.617,-8.4173c1.0564,0 1.5164,-0.8026 1.5164,-0.8026c-2.5314,-1.0526 -2.2819,-4.4496 -2.2819,-4.4496c0,0 0.3289,0.2457 0.9694,0.2688c0.0231,0.0014 0.0428,0.0014 0.0663,0.0014c1.3947,0 1.8674,-1.4965 1.8674,-1.4965l-0.0277,0c-0.2556,0 -2.3289,-0.0603 -3.795,-1.9269l-0.1273,-0.1619c-0.9094,-1.1592 -1.6975,-2.1635 -3.1904,-2.5689l-0.1532,-0.0273l-0.0338,-0.1568c-0.0428,-0.2387 0.1208,-0.4632 0.4915,-0.7047c2.1551,-1.41369 0.6917,-3.21716 0.6917,-3.21716c0,0 -0.6155,1.44193 -1.9924,1.44193c-0.0166,0 -0.0336,-0.00047 -0.0506,-0.00094c-0.0172,-0.00047 -0.0344,-0.00095 -0.0514,-0.00095l-0.0273,-0.00138c-0.1473,-0.00742 -0.2898,-0.0146 -0.4327,-0.04475l-0.2538,-0.04943c0,0 0.3929,-1.07003 -0.5545,-2.05203c-0.7138,-0.74144 -1.5822,-0.86761 -2.0836,-0.86761c-0.2528,0 -0.4131,0.03248 -0.4131,0.03248c0.4756,0.62329 0.82,1.65801 0.2707,2.29636c-0.1839,0.21234 -0.4706,0.34642 -0.7528,0.47844c-0.4468,0.20896 -0.8825,0.41277 -0.8825,0.91359c0,0.34695 0.3233,0.75086 0.9032,1.11335c1.7434,1.1006 3.4746,2.5614 4.1954,4.5174c0.8994,2.4399 -0.1147,4.0603 -1.5606,4.9895c0,0 0.4539,0.4181 1.1114,0.4717c0.1339,0.0128 0.2645,0.0189 0.3867,0.0189c1.3886,0 2.1071,-0.6525 2.1071,-0.6525c0,0 -0.1189,0.9015 -0.8411,1.7385c-0.6668,0.7725 -1.5423,1.2282 -2.8778,1.247c0,0 -0.0418,0.6205 0.5498,1.1581c0.3783,0.3394 1.2514,0.4491 1.2514,0.4491c0,0 -1.6358,0.3324 -1.8163,2.753c-0.0986,1.3115 -0.4332,1.7672 -0.4332,1.7672l0.0296,0c3.7965,0 3.6992,-3.2618 3.6992,-3.2618c0,0 0.2641,0.9659 1.3233,1.2178c0.1283,0.0334 0.2645,0.0466 0.3947,0.0466c0.3407,0 0.6372,-0.0805 0.6372,-0.0805c0,0 -0.5549,-1.1712 -0.0047,-2.8109c0.4563,-1.3605 0.383,-2.3684 0.383,-2.3684c0,0 0.5113,0.7749 1.7791,0.7824l0.0132,0zm2.5756,-6.3411c-0.0235,0.0749 -0.5959,1.8171 -2.3054,1.8171l-0.0808,-0.0023c-0.1833,-0.0052 -0.3459,-0.0301 -0.4878,-0.0579c0.0695,0.9504 0.4177,2.7064 1.9896,3.3603l0.4817,0.1986l-0.2599,0.4534l-0.0019,0.003c-0.0448,0.0731 -0.6291,1.0256 -1.9247,1.0256c-0.5809,-0.0019 -1.0306,-0.1464 -1.3661,-0.3216c-0.0512,0.4303 -0.1565,0.9825 -0.3623,1.5997c-0.4748,1.4152 -0.0404,2.4113 -0.0169,2.4652l0.0004,0.0011l0.2355,0.498l-0.5329,0.1417l-0.0024,0.0006c-0.0464,0.0115 -0.3674,0.0912 -0.7495,0.0912c-0.1818,0 -0.3491,-0.0197 -0.5023,-0.0555c-0.4042,-0.0956 -0.7138,-0.2754 -0.954,-0.4802c-0.1456,0.4468 -0.3933,0.9514 -0.8256,1.3982c-0.7317,0.7555 -1.7876,1.1364 -3.1663,1.1364l-0.8346,-0.0113l0.4615,-0.7062c0.0032,-0.0042 0.2697,-0.4189 0.3529,-1.5393c0.0982,-1.3422 0.6048,-2.126 1.1038,-2.576c-0.1428,-0.0688 -0.2787,-0.153 -0.3914,-0.2557c-0.735,-0.6618 -0.704,-1.4405 -0.6997,-1.5252l0.0319,-0.4199l0.4178,-0.0066c1.1245,-0.0184 1.9064,-0.354 2.5418,-1.0917c0.1485,-0.1732 0.2678,-0.346 0.3637,-0.5145c-0.3501,0.1068 -0.781,0.1864 -1.2862,0.1864c-0.1339,0 -0.2768,-0.008 -0.4262,-0.0179c-0.7882,-0.0677 -1.3211,-0.5375 -1.3813,-0.5906l-0.0003,-0.0002l-0.437,-0.402l0.4991,-0.3211c1.1118,-0.7146 2.257,-2.0699 1.3792,-4.4463c-0.5672,-1.545 -1.8806,-2.9446 -4.0094,-4.2858c-0.7194,-0.45567 -1.1165,-0.99186 -1.1165,-1.50405c0,-0.79134 0.6616,-1.10346 1.1457,-1.32612l0.0448,-0.02146c0.2212,-0.10582 0.4439,-0.21236 0.5562,-0.34244c0.374,-0.43498 0.0587,-1.26822 -0.2895,-1.71968l-0.4431,-0.58562l0.7185,-0.14311c0.0031,-0.00028 0.0098,-0.00127 0.02,-0.00278c0.0592,-0.0088 0.235,-0.03488 0.4814,-0.03488c0.5395,0 1.5714,0.13087 2.413,1.00365c0.7002,0.72591 0.7909,1.4989 0.7542,1.99837c0.0528,0.00443 0.1067,0.00713 0.1622,0.0099l0.046,0.00234l0.0785,0c1.0396,0 1.5397,-1.09244 1.5714,-1.1616l0.0009,-0.00211l0.2975,-0.69955l0.476,0.58986c0.0306,0.03578 0.7308,0.91233 0.5625,2.01108c-0.1146,0.73061 -0.5719,1.36002 -1.3585,1.8779c-0.0841,0.055 -0.1457,0.1021 -0.1885,0.1412c1.4776,0.4815 2.3055,1.5356 3.1766,2.6447l0.0081,0.0104l0.1264,0.1581c1.3374,1.7028 3.2241,1.7531 3.4501,1.7531l0.0024,0l0.641,-0.0202l-0.1913,0.6143zm-4.2279,-5.6384c0.3186,0 0.6899,0.1087 1.0409,0.4722c1.102,1.1204 2.1269,1.183 2.1269,1.183c-0.1861,0.4133 -0.7261,0.7758 -1.2853,0.7758c-0.1292,0 -0.2594,-0.0198 -0.3877,-0.0645c-0.3491,-0.1179 -0.5949,-0.4228 -0.8885,-0.7868c-0.3441,-0.4268 -0.7538,-0.9348 -1.4723,-1.318c0,0 0.3712,-0.2617 0.866,-0.2617zm-1.0831,0.6666c0.6376,0.3404 1.0094,0.7965 1.335,1.2009l0.0129,0.0159l0,0c0.3158,0.3892 0.6171,0.7606 1.0867,0.9167c0.1687,0.0579 0.3482,0.0856 0.531,0.0856c0.7129,0 1.43,-0.4373 1.7016,-1.0432l0.2735,-0.6068l-0.6616,-0.0395c-0.0311,-0.0005 -0.8821,-0.0786 -1.828,-1.047c-0.3896,-0.39776 -0.8609,-0.6063 -1.368,-0.6063c-0.5971,0 -1.0455,0.28791 -1.1229,0.33763l-0.0072,0.00461l-0.6076,0.42886l0.6546,0.3526zm0.3006,6.0756l0,-0.0236c0.5823,3.0463 1.8774,3.8282 1.8774,3.8282c-1.0306,-0.5089 -1.6805,-1.859 -1.8379,-2.3453c-0.171,2.6777 -1.4751,4.5353 -3.0004,6.3242c-0.7914,0.9274 -1.0672,1.8289 -1.0672,1.8289c0,0 0.1527,-1.0216 0.8364,-1.8529c1.423,-1.7127 2.7759,-3.8447 2.8759,-6.3096c0.0687,-1.7211 -0.3721,-3.1159 -1.0615,-4.266c0.3853,1.1976 0.3308,2.664 -0.9784,4.033c0,0 2.6062,-3.1282 -1.0366,-6.3355c-1.035,-0.8664 -2.1397,-1.4976 -2.9872,-1.98185l0,-0.00001c-0.3465,-0.19798 -0.65,-0.3714 -0.8882,-0.52632c2.9675,0.96978 4.4167,-0.09791 4.4167,-0.09791c-0.9473,0.82288 -2.1743,0.80876 -2.9355,0.69013c0.2067,0.10074 0.421,0.20619 0.6522,0.33046c2.5023,1.3614 4.7509,3.6018 5.1343,6.7041zm-19.8209,11.7121c-3.79697,0 -3.70017,-3.2618 -3.70017,-3.2618c0,0 -0.26503,0.9659 -1.32282,1.2178c-0.12688,0.0334 -0.26221,0.0466 -0.39426,0.0466c-0.34069,0 -0.6358,-0.0805 -0.6358,-0.0805c0,0 0.55215,-1.1712 0.00188,-2.8109c-0.45488,-1.36 -0.38111,-2.3684 -0.38111,-2.3684c0,0 -0.51033,0.7749 -1.77958,0.7824l-0.01269,0c-1.05543,0 -1.51643,-0.8026 -1.51643,-0.8026c2.52958,-1.0526 2.28193,-4.4496 2.28193,-4.4496c0,0 -0.32894,0.2457 -0.97038,0.2688c-0.0235,0.0014 -0.04417,0.0014 -0.06626,0.0014c-1.39566,0 -1.8684,-1.4965 -1.8684,-1.4965l0.0282,0c0.25798,0 2.32892,-0.0608 3.79412,-1.9269l0.12443,-0.1583c0.91116,-1.161 1.70007,-2.1663 3.19226,-2.5725l0.15648,-0.0278l0.03337,-0.1563c0.04323,-0.2387 -0.11983,-0.4632 -0.4906,-0.7047c-2.15458,-1.41369 -0.69125,-3.21669 -0.69125,-3.21669c0,0 0.61184,1.44146 1.99246,1.44146c0.01637,0 0.03229,-0.00034 0.04848,-0.00069l0.00008,0c0.01677,-0.00036 0.03384,-0.00072 0.052,-0.00072l0.03707,-0.002c0.14239,-0.00762 0.28329,-0.01515 0.42249,-0.04461l0.2538,-0.04943c0,0 -0.3943,-1.07003 0.5559,-2.05203c0.7138,-0.74144 1.5813,-0.86761 2.0827,-0.86761c0.2542,0 0.4121,0.03248 0.4121,0.03248c-0.4746,0.62329 -0.8186,1.65801 -0.2697,2.29636c0.1839,0.2123 0.4702,0.34637 0.7522,0.47837c0.4464,0.20899 0.8817,0.41278 0.8817,0.91366c0,0.34695 -0.3229,0.75086 -0.9018,1.11335c-1.7448,1.1006 -3.4755,2.5614 -4.19591,4.5174c-0.89849,2.4404 0.11561,4.0603 1.56341,4.9895c0,0 -0.4553,0.4181 -1.1137,0.4717c-0.1339,0.0128 -0.2636,0.0189 -0.38815,0.0189c-1.38721,0 -2.10524,-0.6525 -2.10524,-0.6525c0,0 0.11936,0.9015 0.83739,1.739c0.67105,0.772 1.5451,1.2277 2.8811,1.2465c0,0 0.0423,0.6205 -0.5484,1.1576c-0.3792,0.3399 -1.25282,0.4496 -1.25282,0.4496c0,0 1.63722,0.3324 1.81722,2.7525c0.0977,1.312 0.4299,1.7677 0.4299,1.7677l-0.0272,0zm0.4036,-0.2608l-0.0015,-0.0026c-0.0215,-0.0371 -0.2684,-0.4626 -0.35,-1.5367c-0.0991,-1.3426 -0.6057,-2.126 -1.1062,-2.576c0.1448,-0.0688 0.2787,-0.153 0.3915,-0.2557c0.7349,-0.6618 0.7039,-1.4405 0.6988,-1.5252l-0.0282,-0.4199l-0.4211,-0.0066c-1.1212,-0.0184 -1.90457,-0.354 -2.5399,-1.0917c-0.14755,-0.1732 -0.26691,-0.346 -0.36371,-0.5145c0.34962,0.1068 0.77771,0.1864 1.28476,0.1864c0.13585,0 0.27725,-0.008 0.42665,-0.0179c0.7895,-0.0678 1.3238,-0.5386 1.383,-0.5908l0.437,-0.402l-0.4986,-0.3211c-1.116,-0.7146 -2.25651,-2.0699 -1.3806,-4.4463c0.5677,-1.545 1.8792,-2.9446 4.0113,-4.2858c0.7194,-0.45567 1.1132,-0.99186 1.1132,-1.50405c0,-0.79134 -0.6598,-1.10346 -1.1438,-1.32612l-0.0432,-0.02064c-0.2222,-0.10609 -0.4457,-0.21284 -0.5578,-0.34326c-0.375,-0.43498 -0.0592,-1.26822 0.289,-1.71968l0.4464,-0.58562l-0.7227,-0.14311l-0.0155,-0.00226c-0.0542,-0.0083 -0.2309,-0.0354 -0.4845,-0.0354c-0.5395,0 -1.5696,0.13087 -2.4107,1.00365c-0.7011,0.72638 -0.7932,1.4989 -0.7571,1.99837c-0.05347,0.00447 -0.10728,0.00717 -0.16301,0.00997l-0.00003,0l-0.04461,0.00227l-0.07707,0c-1.05544,0 -1.55402,-1.11993 -1.57329,-1.16371l-0.29652,-0.69955l-0.48073,0.58986l-0.0035,0.00458c-0.05971,0.07759 -0.72083,0.93673 -0.55429,2.0065c0.11325,0.73061 0.57142,1.36002 1.3576,1.8779c0.08552,0.055 0.1452,0.1021 0.18796,0.1412c-1.47817,0.4811 -2.30502,1.5339 -3.17528,2.6419l-0.0103,0.0132l-0.12594,0.1581c-1.33551,1.7028 -3.22646,1.7531 -3.45249,1.7531l-0.64426,-0.0202l0.19596,0.6143c0.02302,0.0749 0.59303,1.8171 2.30401,1.8171l0.08224,-0.0023c0.18138,-0.0052 0.34351,-0.0301 0.48777,-0.0579c-0.07049,0.95 -0.41964,2.7064 -1.99199,3.3603l-0.48025,0.1986l0.25986,0.4534l0.00055,0.0009c0.03187,0.0531 0.61647,1.0277 1.92941,1.0277c0.57753,-0.0019 1.02677,-0.1464 1.36276,-0.3211c0.05076,0.4298 0.15649,0.982 0.36278,1.5992c0.47129,1.4048 0.04589,2.3965 0.01701,2.4639l-0.00103,0.0024l-0.23637,0.498l0.53383,0.1417c0.03524,0.009 0.36372,0.0918 0.75187,0.0918c0.18139,0 0.34915,-0.0197 0.50093,-0.0555c0.4046,-0.0956 0.71757,-0.2754 0.95535,-0.4802c0.14473,0.4468 0.39332,0.9514 0.82471,1.3982c0.73354,0.7555 1.78846,1.1364 3.16676,1.1364l0.8351,-0.0113l-0.462,-0.7062zm-6.97623,-18.1925c-0.32048,0 -0.69125,0.1092 -1.04369,0.4722c-1.10055,1.1209 -2.12497,1.1835 -2.12497,1.1835c0.18468,0.4133 0.72555,0.7753 1.28429,0.7753c0.12969,0 0.25986,-0.0188 0.38533,-0.0635c0.3499,-0.1183 0.59684,-0.4238 0.8915,-0.7883c0.34486,-0.4267 0.75508,-0.9342 1.47219,-1.317c0,0 -0.37264,-0.2622 -0.86465,-0.2622zm-1.35289,2.801c-0.16918,0.0579 -0.34821,0.0852 -0.53148,0.0852c-0.7124,0 -1.42809,-0.4373 -1.70111,-1.0427l-0.27114,-0.6073l0.6607,-0.039c0.03055,-0.001 0.87922,-0.0787 1.82658,-1.0475c0.38909,-0.39777 0.86089,-0.60585 1.36934,-0.60585c0.59618,0 1.04214,0.28657 1.11994,0.33657l0.0074,0.00473l0.60948,0.42935l-0.65647,0.3526c-0.63328,0.3377 -1,0.79 -1.32565,1.1916l-0.00751,0.0093l-0.00967,0.0119c-0.31648,0.3911 -0.61825,0.7641 -1.09041,0.9211zm2.45157,5.3901c-0.07096,-1.7211 0.37029,-3.1159 1.0606,-4.266c-0.38486,1.1976 -0.3327,2.664 0.97838,4.0334c0,0 -2.60711,-3.1286 1.03805,-6.3359c1.03502,-0.867 2.13942,-1.4984 2.98672,-1.98275l0,-0.00001c0.3456,-0.1976 0.6485,-0.37074 0.8863,-0.52542c-2.9665,0.96978 -4.41531,-0.09791 -4.41531,-0.09791c0.94642,0.82288 2.17381,0.80876 2.93461,0.69013l-0.0365,0.01787c-0.1948,0.09532 -0.399,0.1952 -0.6152,0.31259c-2.5033,1.3614 -4.75045,3.6018 -5.13579,6.7041l0,-0.0236c-0.58129,3.0463 -1.87544,3.8282 -1.87544,3.8282c1.02959,-0.5089 1.67808,-1.859 1.83597,-2.3453c0.17199,2.6777 1.47601,4.5353 3.0009,6.3242c0.79135,0.9274 1.06996,1.8289 1.06996,1.8289c0,0 -0.1546,-1.0216 -0.84158,-1.8529c-1.42056,-1.7122 -2.77205,-3.8447 -2.87167,-6.3096zm9.98085,-12.46018l2.507,0.99236l2.508,-0.99236c-0.2124,-0.50559 -1.1955,-0.93586 -2.508,-0.93728c-1.3106,0.00142 -2.2937,0.43169 -2.507,0.93728zm2.6912,4.99048l1.6851,-0.88971l0.6015,-3.49019l-2.2866,0.77769l0,3.60221zm3.4995,0.5146l-0.7707,-0.4482l-0.7918,-0.4543l-2.1151,1.1538l-0.0061,-0.0047l-0.0038,0.0047l-2.1155,-1.1538l-0.7918,0.4543l-0.7721,0.4482l-0.0089,0l-0.1955,0.1134c0.4356,0.1205 0.7669,0.3361 1.0474,0.6228c0.0046,0.0044 0.0088,0.0091 0.013,0.0139c0.0062,0.007 0.0126,0.0141 0.0204,0.0205c0.062,0.0668 0.1231,0.1393 0.1828,0.2128l0.0025,0.003c0.0131,0.0157 0.0251,0.0302 0.0384,0.0488c0.0545,0.0725 0.109,0.1497 0.1626,0.2283c0.0066,0.0088 0.0131,0.0186 0.0198,0.0287c0.0051,0.0078 0.0104,0.0158 0.0159,0.0235c0.0634,0.0965 0.1236,0.1959 0.1832,0.2985c0.548,0.9472 1.4239,1.513 2.2016,1.5144c0.7787,-0.0014 1.6541,-0.5672 2.203,-1.5144c0.0606,-0.1055 0.1222,-0.2071 0.1856,-0.3027c0.0094,-0.0137 0.0197,-0.0278 0.0287,-0.0419c0.0535,-0.0814 0.1104,-0.1605 0.1696,-0.2373c0.0076,-0.0101 0.0151,-0.0196 0.0221,-0.0287l0.0136,-0.0174c0.0611,-0.0763 0.1246,-0.1497 0.1885,-0.218c0.0045,-0.0043 0.0087,-0.0087 0.0128,-0.0128c0.0059,-0.0061 0.0116,-0.012 0.0177,-0.0173c0.2791,-0.2862 0.6114,-0.5042 1.0465,-0.6247l-0.1936,-0.1134l-0.0108,0zm1.9539,4.1972c0,-0.491 0.1429,-0.9848 0.3153,-1.441l-3.9539,0c-0.6057,0.6017 -1.1865,0.8248 -1.7058,0.8766c-0.094,0.0094 -0.1893,0.0155 -0.2857,0.0155l-0.0131,0c-0.0968,0 -0.1927,-0.0061 -0.2867,-0.0155c-0.0907,-0.008 -0.1856,-0.0226 -0.281,-0.0447c-0.0338,0.136 -0.0771,0.418 0.0461,0.6873c0.1104,0.2429 0.3336,0.4241 0.6588,0.5447l0.1095,0.0423l0.0019,0.1182c0,0.0353 0.0258,0.8021 0.859,1.0149l0.0324,-0.0336l0.0001,0l0.0002,-0.0003c0.1229,-0.1272 0.2341,-0.2425 0.3188,-0.3398c-0.1701,-0.4021 -0.0813,-0.8116 0.1663,-1.0131c-0.0108,0.0423 -0.1193,1.0484 0.6847,1.4221l0.133,0.0627l-0.0395,0.1421c-0.0127,0.0419 -0.2815,1.0154 0.6931,1.3775l0.172,0.0654l-0.0761,0.1671c-0.0174,0.0381 -0.3985,0.9203 0.5009,1.4222l1.9511,0l0,-1.5516c-0.6936,-0.0853 -0.9877,-0.644 -1.0634,-1.0395c-0.3224,-0.0551 -0.5719,-0.1953 -0.7439,-0.4227c-0.3654,-0.4827 -0.1229,-0.9289 -0.064,-1.0373c0.007,-0.0129 0.0114,-0.021 0.0119,-0.0238c-0.0005,0.0047 0,0.531 0.3242,0.8558c0.1607,0.1563 0.3515,0.2778 0.6386,0.3056l0.1424,0.0127l0.0122,0.145c0.0028,0.031 0.0809,0.7442 0.742,0.8553l-0.0014,-3.1701zm-1.9046,11.2366l-0.218,1.1373c1.3007,-0.3206 2.1264,-1.304 2.1264,-2.7125l-0.0024,-4.2486l-11.2757,0l0,4.2486c0,1.738 1.2556,2.826 3.1081,2.826c1.5474,0 1.9553,0.0602 2.531,0.6322c0.3966,-0.3964 0.7246,-0.5447 1.3984,-0.5993l0.0155,-0.0664l0.3562,-1.0997c-0.0202,-0.0254 -0.601,-0.6863 -0.601,-0.6863c-0.2307,0.0767 -0.4248,0.089 -0.749,0.089c-0.3342,0 -0.7106,-0.0382 -1.1189,-0.1154c-0.0414,-0.0094 -0.0794,-0.0132 -0.118,-0.0132c-0.0502,0 -0.0531,0.0038 -0.0667,0.0288l-0.0705,0.1162l-0.1292,0.2142l-0.2439,-0.056l-1.0818,-0.2556l-0.1484,0.2452l0.022,0.0264l0.1316,0.1455l-0.0587,0.1892c-0.079,0.2476 -0.3374,0.5372 -0.4164,0.6162l-0.2702,0.291l-0.2462,-0.3117l-0.1852,-0.233c-0.195,-0.2184 -0.2396,-0.5517 -0.1301,-0.9024c-0.0028,0.0023 -0.0071,0.0037 -0.0113,0.0051l-0.305,0.1262l-0.1372,-0.2989l-0.0963,-0.2114c-0.1664,-0.3733 -0.1053,-0.918 0.3425,-1.2475l0.8708,-0.4924l0.8289,0.1629c0.0088,-0.0354 0.0196,-0.1112 0.031,-0.191l0,-0.0001l0,0c0.0142,-0.0999 0.0293,-0.206 0.0423,-0.2463c-0.0057,-0.0006 -0.0112,-0.0015 -0.0167,-0.0024l0,0c-0.0101,-0.0016 -0.02,-0.0032 -0.0307,-0.0032l-0.4775,0.1784l-0.4609,-0.3178c0,0 -0.18,-0.1746 -0.017,-0.3479l0.446,-0.6769l-1.1302,-1.4212l1.7373,0.7146l0.1152,-0.1431l0.2344,-0.2815l0.2665,0.2532c0.0752,0.073 0.1184,0.1624 0.1391,0.2519c0.4784,0.1869 1.3369,0.7377 1.4126,1.6335l-0.2684,0.1078l0,0.0061c0.0621,0.073 0.1123,0.1027 0.1279,0.106l1.2405,0.1224c0.0203,-0.004 0.0441,-0.0114 0.0704,-0.0196l0.0001,0c0.014,-0.0044 0.0288,-0.009 0.0442,-0.0134c0.1541,-0.0523 0.3844,-0.128 0.6593,-0.128c0.2237,0 0.4389,0.0508 0.6475,0.1482c0.0762,-0.0287 0.1702,-0.0503 0.2792,-0.0574l0.0592,-0.0014c0.6633,0 0.9941,0.4957 1.2586,0.8918l0.0008,0.0012c0.0441,0.0692 0.0874,0.1333 0.1334,0.1977c0.2322,0.3277 0.5348,0.8065 0.547,0.8276l0.1363,0.2142l-0.1668,0.1949c-0.1288,0.1497 -0.3229,0.3248 -0.6556,0.3248c-0.0681,0 -0.1428,-0.008 -0.2246,-0.0235c-0.0705,-0.0132 -0.1349,-0.0339 -0.1969,-0.0598c-0.007,0.0485 -0.0165,0.104 -0.0256,0.1567l0,0.0001l-0.0092,0.0537zm-7.1042,-1.1181l-0.0587,-0.1469c-0.0419,-0.096 -0.0362,-0.1996 0.0446,-0.2561l0.4742,-0.3281l0.7922,0.1525c0,0 -0.1433,-0.1798 -0.1292,-0.4203l-0.7566,-0.1606l-0.7133,0.435c-0.3064,0.2293 -0.328,0.604 -0.227,0.8262l0.095,0.2085c0,0 0.4398,-0.1817 0.4788,-0.3102zm6.5239,2.3246l0.2429,-1.2706c0.0273,-0.1388 0.0527,-0.3248 0.0527,-0.3248c-0.0144,-0.0147 -0.0319,-0.0319 -0.0518,-0.0513l0,0c-0.1094,-0.1072 -0.2893,-0.2834 -0.3975,-0.491c-0.0907,-0.1743 -0.1075,-0.3048 -0.1266,-0.4523c-0.017,-0.1321 -0.0359,-0.2778 -0.1112,-0.4807c0,0 0.0489,-0.0998 0.1612,-0.0998c0.0179,0 0.0367,0.0018 0.0555,0.007c0.1481,0.0422 0.2492,0.2936 0.3633,0.5775c0.1545,0.3843 0.333,0.8282 0.6846,0.8932c0.0601,0.0122 0.1151,0.016 0.1635,0.016c0.1772,0 0.2825,-0.0754 0.3957,-0.21c0,0 -0.3073,-0.4839 -0.5371,-0.8106c-0.0485,-0.0679 -0.0952,-0.138 -0.1418,-0.2079l-0.0001,0c-0.2475,-0.3711 -0.4911,-0.7365 -0.9704,-0.7365c-0.0132,0 -0.0296,0 -0.0437,0.0019c-0.187,0.0094 -0.3031,0.1012 -0.3031,0.1012c-0.2298,-0.145 -0.445,-0.1944 -0.6391,-0.1944c-0.2189,0 -0.408,0.062 -0.5536,0.1097l0,0c-0.091,0.0299 -0.165,0.0541 -0.2185,0.0541l-0.0051,0l-1.2702,-0.1261c-0.1988,-0.0184 -0.3562,-0.2189 -0.4126,-0.2976c-0.0141,-0.0211 -0.0216,-0.0343 -0.0216,-0.0343l0,-0.0001c0,-0.0343 0,-0.0696 -0.0024,-0.1016c-0.0428,-1.0404 -0.8473,-1.4857 -1.1339,-1.4928c0,0 0.0338,-0.1977 -0.0432,-0.2735l-0.2811,0.3408l-0.9186,-0.4627l0.656,0.7683l-0.5555,0.6242c-0.07,0.0715 -0.0611,0.1676 -0.0319,0.2081l0.2396,0.2127l0.3045,-0.185c0.0151,-0.0113 0.0433,-0.0146 0.0766,-0.0146c0.039,0 0.0869,0.0047 0.1385,0.0097l0,0c0.0599,0.0057 0.1245,0.012 0.1853,0.012c0.1241,0 0.2312,-0.0264 0.2444,-0.1431c-0.0115,0.1166 -0.0522,0.259 -0.0968,0.4156c-0.1033,0.362 -0.2281,0.7995 -0.0644,1.1675l0.1743,0.3983l-1.1231,-0.1624l-0.5258,0.8893c-0.1626,0.2961 -0.188,0.6162 -0.032,0.7908l0.1969,0.2467c0,0 0.2759,-0.2928 0.3374,-0.4863l-0.0893,-0.0979c-0.0752,-0.0829 -0.0714,-0.1572 -0.0253,-0.2462l0.3298,-0.547l1.3257,0.3125l0.0705,-0.1195c0.0897,-0.1502 0.2194,-0.1944 0.3613,-0.1944c0.0588,0 0.1185,0.007 0.181,0.0169c0.2462,0.049 0.6508,0.1135 1.0559,0.1135c0.4445,0 0.8862,-0.0791 1.1207,-0.3432c0.2463,0.3657 0.6219,0.5736 0.9193,0.7383c0.2829,0.1568 0.4952,0.2743 0.458,0.4513l-0.2565,1.2211c0.1691,-0.0066 0.3327,-0.0179 0.4887,-0.04zm-1.3961,0.0565c0.1414,-0.0057 0.2988,-0.008 0.4699,-0.008c0,0 0.4083,-1.1953 0.4314,-1.2329c-0.2284,-0.1008 -0.7035,-0.3536 -0.8868,-0.4689c0.0395,0.0588 0.097,0.1202 0.1548,0.1819l0.0001,0c0.1204,0.1286 0.2418,0.2582 0.2027,0.367l-0.3721,1.1609zm-5.0094,-12.4873l-0.0531,2.0181l0.2293,0.0353l0.5597,-1.9371l-0.2838,-0.5956l-0.4521,0.4793zm0.5724,2.961c-0.0935,-0.0588 -0.2265,-0.1624 -0.3003,-0.3177c-0.0846,-0.1789 -0.2058,-0.2627 -0.383,-0.2627c-0.2307,0 -0.4769,0.1389 -0.5831,0.2038c-0.0846,0.4981 0.2819,0.9496 0.5277,1.0404c0.2222,0.081 0.4929,0.0979 0.6315,0.0979l0.005,-0.0156c0.0044,-0.0139 0.0096,-0.0299 0.0143,-0.0484c0.0122,-0.0409 0.0235,-0.0819 0.0329,-0.1266c0.0381,-0.1996 0.0517,-0.4251 0.055,-0.5711zm3.3674,1.3638c0.3252,-0.2273 1.2209,-0.8826 1.5686,-1.1392c-0.2528,-0.37 -0.2768,-0.8088 -0.2204,-1.1176c-0.1659,-0.1059 -0.2918,-0.2269 -0.3928,-0.354c-0.3712,0.4056 -1.0547,1.073 -1.247,1.2607l-0.05,0.049l-0.0503,0.0513l-2.6287,-0.0424c-0.0019,0.2613 -0.0442,0.483 -0.0851,0.6459c-0.0065,0.0273 -0.0141,0.0555 -0.0216,0.0833l3.1273,0.563zm-1.5907,-5.0432c-0.3496,-0.128 -0.7175,-0.3606 -1.0935,-0.7349l-3.9524,0c0.1696,0.4562 0.3129,0.95 0.3129,1.441l0,5.0706l8.7706,0c-0.4384,-0.4534 -0.4319,-1.0272 -0.3205,-1.3996c-0.1273,-0.0612 -0.2326,-0.1346 -0.3271,-0.2161c-0.3425,0.2528 -1.3881,1.0159 -1.6621,1.208l-0.0587,0.0391l-3.4412,-0.6233l-0.0705,0c-0.0827,0 -0.2035,-0.0033 -0.3351,-0.0188c-0.0375,0.1553 -0.1715,0.2617 -0.3251,0.2617c-0.017,0 -0.0367,-0.0014 -0.055,-0.0047c-0.0893,-0.016 -0.1678,-0.0612 -0.2195,-0.137c-0.0545,-0.0739 -0.0752,-0.1624 -0.0606,-0.2533l0.0127,-0.0744c-0.3543,-0.2504 -0.6819,-0.8101 -0.5371,-1.4l0.0141,-0.0626l0.0503,-0.0353c0.007,-0.0057 0.0662,-0.0461 0.1555,-0.097l-0.25,-0.0381c-0.0935,-0.0165 -0.1565,-0.1045 -0.1424,-0.1968c0.0165,-0.0937 0.1043,-0.161 0.1964,-0.1431l0.5959,0.0951l0.0545,-2.1019l0.8867,-0.9392l0.5531,1.1665l-0.5836,2.0215l0.5263,0.0833c0.0926,0.0146 0.1556,0.1022 0.1415,0.1968c-0.0137,0.0852 -0.0856,0.1426 -0.1683,0.1426c-0.0089,0 -0.0183,0 -0.0272,-0.0014l-0.4281,-0.0692c0.0026,0.0062 0.0059,0.0111 0.0092,0.0159c0.0037,0.0054 0.0073,0.0108 0.01,0.018c0.0452,0.0946 0.1471,0.1619 0.2063,0.1916l2.6231,0.0414c0.1114,-0.1087 0.3868,-0.3785 0.6701,-0.6647c-0.6461,-0.2453 -0.8801,-0.8022 -0.9196,-1.1726c-0.3609,-0.154 -0.6104,-0.3847 -0.7481,-0.6841c-0.1682,-0.3714 -0.1086,-0.7442 -0.0635,-0.925zm0.7209,-7.60791l-2.2885,-0.77769l0.6034,3.49019l1.6851,0.88971l0,-3.60221zm0.188,-2.88198c1.6301,0 3.1071,0.79087 3.1071,1.66978l-0.0315,0.21607l-0.6513,3.743l0.6513,0.38034l1.6941,0.9896l-0.0062,0c0,0 0.3811,0.1958 0.5545,0.3163c0.6481,0.4482 0.7834,1.1021 0.4093,1.3723c-0.0935,-0.5334 -0.5136,-1.0903 -1.3007,-1.0903c-0.5677,0 -0.999,0.2914 -1.351,0.733c-0.0884,0.1111 -0.1729,0.2297 -0.2538,0.3573c-0.0977,0.161 -0.1959,0.3022 -0.2932,0.4382l4.359,0c-0.3219,0.645 -0.626,1.3281 -0.626,2.0704l0,9.6614c0,2.3387 -1.7927,3.4549 -3.7358,3.4549c-0.1137,0 -0.2199,-0.0004 -0.3195,-0.0008l-0.0002,0c-1.2164,-0.0045 -1.4471,-0.0053 -2.2089,0.7587c-0.7653,-0.764 -0.9959,-0.7632 -2.2116,-0.7587c-0.0996,0.0004 -0.2058,0.0008 -0.3194,0.0008c-1.9417,0 -3.7368,-1.1162 -3.7368,-3.4549l0,-9.6614c0,-0.7423 -0.3045,-1.4254 -0.625,-2.0704l4.3575,0c-0.0972,-0.136 -0.1959,-0.2772 -0.2937,-0.4382c-0.0794,-0.1276 -0.1644,-0.2462 -0.2547,-0.3573c-0.3486,-0.4397 -0.7814,-0.733 -1.3486,-0.733c-0.7881,0 -1.2087,0.5569 -1.3008,1.0903c-0.374,-0.2702 -0.2373,-0.9241 0.407,-1.3723c0.1762,-0.1205 0.5568,-0.3163 0.5568,-0.3163l-0.0061,0l1.6917,-0.9896l0.6537,-0.38034l-0.6508,-3.743l-0.0325,-0.21607c0,-0.87891 1.477,-1.66978 3.1071,-1.66978l0.009,0zm-1.2419,4.02814c0.2551,0.20264 0.4131,0.25334 0.4458,0.26382l0.0053,0.00174l0.0009,0.00042l0.1109,0.05131l0,-0.57903l-1.0408,-0.43828c0,0 0.0089,0.33565 0.4779,0.70002zm0.3795,3.64765l0,0.6153c0.2124,-0.2585 0.6207,-0.2058 0.6207,-0.2058l0,0.887c0,0 -0.0136,0.4364 -0.1687,0.6251l0.8858,0c-0.1531,-0.1887 -0.1682,-0.6251 -0.1682,-0.6251l0,-0.887c0,0 0.4098,-0.0527 0.6203,0.2058l0,-0.6153l-1.7899,0zm2.5741,-4.34767c0,0 -0.009,0.33565 -0.4794,0.70002c-0.2559,0.20356 -0.4137,0.25379 -0.4457,0.26397c-0.0033,0.00107 -0.0053,0.00169 -0.0059,0.00201l-0.1099,0.05131l0,-0.57903l1.0409,-0.43828zm-3.8649,15.23077c0.0052,-0.0633 0.0583,-0.1133 0.1227,-0.1072c0.0658,0.0024 0.1118,0.0604 0.1099,0.1223c-0.0061,0.0647 -0.0611,0.1129 -0.1236,0.1077c-0.0653,-0.0014 -0.1132,-0.0572 -0.109,-0.1228z" clip-rule="evenodd" fill-rule="evenodd"/>
 </g>
</svg>