<svg width="76" height="76" xmlns="http://www.w3.org/2000/svg" fill="none">
 <mask height="76" width="73" y="0" x="0" maskUnits="userSpaceOnUse" id="mask0_733_550">
  <path id="svg_1" fill="#EAF8FF" d="m59.3491,66.635c-0.6757,1.3679 -1.9388,2.3524 -3.4303,2.6736l-27.8038,5.9882c-1.5028,0.3236 -3.071,-0.062 -4.2523,-1.0458l-10.9762,-9.1406l-11.0129,-9.1711c-1.16042,-0.9664 -1.82193,-2.4055 -1.79982,-3.9154l0.42329,-28.9087c0.02213,-1.5114 0.72676,-2.9316 1.91683,-3.8635l22.521,-17.63519c1.2104,-0.94781 2.7895,-1.28611 4.282,-0.91736l27.6166,6.82349c1.4805,0.36579 2.713,1.38719 3.3475,2.77396l11.9916,26.2115c0.6259,1.3682 0.6025,2.9455 -0.0638,4.2944l-12.7597,25.8325z"/>
 </mask>
 <defs>
  <linearGradient y2="-0.06561" x2="0.58204" y1="0.99605" x1="0.37778" id="paint0_linear_733_550">
   <stop stop-opacity="0" stop-color="#FE3E6C"/>
   <stop stop-opacity="0.55" stop-color="#FE3E6C" offset="0.54"/>
   <stop stop-color="#FE3E6C" offset="1"/>
  </linearGradient>
  <linearGradient y2="-0.0111" x2="0.89032" y1="0.64524" x1="0.26781" id="paint1_linear_733_550">
   <stop stop-opacity="0" stop-color="#00CBFF"/>
   <stop stop-opacity="0.02" stop-color="#00CBFF" offset="0.11"/>
   <stop stop-opacity="0.09" stop-color="#00CBFF" offset="0.24"/>
   <stop stop-opacity="0.21" stop-color="#00CBFF" offset="0.39"/>
   <stop stop-opacity="0.37" stop-color="#00CBFF" offset="0.55"/>
   <stop stop-opacity="0.58" stop-color="#00CBFF" offset="0.72"/>
   <stop stop-opacity="0.82" stop-color="#00CBFF" offset="0.89"/>
   <stop stop-color="#00CBFF" offset="1"/>
  </linearGradient>
  <linearGradient y2="0.87435" x2="0.22456" y1="0.11451" x1="0.74284" id="paint2_linear_733_550">
   <stop stop-opacity="0" stop-color="#FE3E6C"/>
   <stop stop-opacity="0.05" stop-color="#FE3E6C" offset="0.12"/>
   <stop stop-opacity="0.2" stop-color="#ED335F" offset="0.32"/>
   <stop stop-opacity="0.42" stop-color="#D52751" offset="0.56"/>
   <stop stop-opacity="0.73" stop-color="#D42751" offset="0.83"/>
   <stop stop-opacity="0.9" stop-color="#E32D59" offset="1"/>
  </linearGradient>
  <linearGradient y2="1.09046" x2="0.25235" y1="-0.00246" x1="0.58247" id="paint3_linear_733_550">
   <stop stop-opacity="0" stop-color="white"/>
   <stop stop-opacity="0.02" stop-color="white" offset="0.1"/>
   <stop stop-opacity="0.08" stop-color="white" offset="0.22"/>
   <stop stop-opacity="0.18" stop-color="white" offset="0.36"/>
   <stop stop-opacity="0.32" stop-color="white" offset="0.51"/>
   <stop stop-opacity="0.5" stop-color="white" offset="0.66"/>
   <stop stop-opacity="0.72" stop-color="white" offset="0.82"/>
   <stop stop-opacity="0.97" stop-color="white" offset="0.98"/>
   <stop stop-color="white" offset="1"/>
  </linearGradient>
  <linearGradient y2="0.88033" x2="0.2024" y1="0.11571" x1="0.735" id="paint4_linear_733_550">
   <stop stop-opacity="0" stop-color="#FE3E6C"/>
   <stop stop-opacity="0.05" stop-color="#FE3E6C" offset="0.12"/>
   <stop stop-opacity="0.2" stop-color="#ED335F" offset="0.32"/>
   <stop stop-opacity="0.42" stop-color="#D52751" offset="0.56"/>
   <stop stop-opacity="0.73" stop-color="#D42751" offset="0.83"/>
   <stop stop-opacity="0.9" stop-color="#E32D59" offset="1"/>
  </linearGradient>
  <linearGradient y2="0.91886" x2="0.24043" y1="0.09222" x1="0.57304" id="paint5_linear_733_550">
   <stop stop-opacity="0" stop-color="#00CBFF" offset="0.19"/>
   <stop stop-opacity="0.02" stop-color="#00CBFF" offset="0.32"/>
   <stop stop-opacity="0.06" stop-color="#00CBFF" offset="0.43"/>
   <stop stop-opacity="0.14" stop-color="#00CBFF" offset="0.54"/>
   <stop stop-opacity="0.26" stop-color="#00CBFF" offset="0.64"/>
   <stop stop-opacity="0.4" stop-color="#00CBFF" offset="0.73"/>
   <stop stop-opacity="0.58" stop-color="#00CBFF" offset="0.83"/>
   <stop stop-opacity="0.79" stop-color="#00CBFF" offset="0.92"/>
   <stop stop-color="#00CBFF" offset="1"/>
  </linearGradient>
  <linearGradient y2="1.00725" x2="-0.01812" y1="0.80246" x1="0.99225" id="paint6_linear_733_550">
   <stop stop-color="#FE3E83"/>
   <stop stop-opacity="0.55" stop-color="#E91C24" offset="0.42967"/>
   <stop stop-opacity="0" stop-color="#E91C24" offset="1"/>
  </linearGradient>
  <linearGradient y2="0.5" x2="0.99611" y1="0.5" x1="0" id="paint7_linear_733_550">
   <stop stop-opacity="0" stop-color="#181EB0"/>
   <stop stop-opacity="0.02" stop-color="#1955C9" offset="0.11"/>
   <stop stop-opacity="0.09" stop-color="#1955C9" offset="0.24"/>
   <stop stop-opacity="0.21" stop-color="#1B6FD1" offset="0.39"/>
   <stop stop-opacity="0.4" stop-color="#0FACEF" offset="0.71667"/>
   <stop stop-opacity="0.85" stop-color="#00CBFF" offset="1"/>
  </linearGradient>
 </defs>
 <g>
  <title>Layer 1</title>
  <g id="svg_2" mask="url(#mask0_733_550)">
   <path id="svg_3" fill="#EAF8FF" d="m60.24078,68.8002l-32.5454,7.0093l-12.8477,-10.6991l-12.84768,-10.6991l0.49324,-33.686l26.32044,-20.61034l32.3243,7.98666l13.9851,30.56888l-14.8823,30.1297z"/>
   <path id="svg_4" fill="url(#paint0_linear_733_550)" d="m58.76538,41.8049l-8.749,18.4827l10.4516,8.5154l14.6543,-30.1335l-16.3569,3.1354z" opacity="0.5"/>
   <path id="svg_5" fill="url(#paint1_linear_733_550)" d="m35.35748,28.8153l-6.6885,13.7l-20.47806,-16.843l12.19496,-0.9731l2.1558,1.029l12.8158,3.0871z" opacity="0.4"/>
   <path id="svg_6" fill="url(#paint2_linear_733_550)" d="m2.00122,54.4118l26.26376,21.9719l0.3936,-42.7019l-26.16534,-12.9565l-0.28489,19.4952l-0.20713,14.1913z" opacity="0.85"/>
   <path id="svg_7" fill="url(#paint3_linear_733_550)" d="m2,54.4113l59.13798,-46.30968l-32.3243,-7.98666l-26.32044,20.61034l-0.49324,33.686z"/>
   <path id="svg_8" fill="#858CD0" d="m27.69548,75.8079l16.6342,-3.5805l23.5225,-49.4527l-6.714,-14.67308l-32.3231,-7.98666l-26.32167,20.61034l5.83386,5.0675l14.21901,-0.0646c0,0 1.7986,-3.9696 5.5277,-3.9696c3.729,0 10.7535,0.0473 10.7535,0.0473l-22.1788,44.8011l11.0468,9.2009z"/>
   <path id="svg_9" fill="#7E6CEF" d="m65.54318,27.6269l2.3089,-4.8522l-6.7156,-14.6721l-33.4241,67.6983l16.6167,-3.5735l21.2141,-44.6005z"/>
   <path id="svg_10" fill="#7E6CEF" d="m28.06108,21.7586l3.7248,0l0.2466,0l-17.0508,0c-1.332,0.0912 -2.6234,0.5024 -3.76733,1.1994c-1.14388,0.6971 -2.18511,1.6872 -2.88842,2.8363l5.89455,-0.0273l8.3256,-0.0388c0,0 1.7987,-3.9696 5.515,-3.9696z"/>
   <path id="svg_11" fill="url(#paint4_linear_733_550)" d="m2.00122,54.4131l26.26376,21.9719l0.3936,-42.7032l-26.16534,-12.9552l-0.28489,19.4952l-0.20713,14.1913z" opacity="0.85"/>
   <path id="svg_12" fill="url(#paint5_linear_733_550)" d="m61.13628,8.1026l-32.3213,-7.98837l31.4249,68.68667l14.8822,-30.1314l-13.9858,-30.5669z" opacity="0.67"/>
   <g id="svg_13" opacity="0.61">
    <path id="svg_14" fill="#686792" d="m38.82728,21.8059l7.4794,16.3608l14.8297,-30.06409l-32.3214,-7.98838l9.9867,21.69167l0.0256,0z"/>
   </g>
   <path id="svg_15" fill="url(#paint6_linear_733_550)" d="m61.13628,8.1026l-18.1404,36.7365l32.1262,-6.1696l-13.9858,-30.5669z" opacity="0.7"/>
   <path id="svg_16" fill="url(#paint7_linear_733_550)" d="m2.49324,20.7253l-0.49324,33.686l25.69538,21.3982l32.7726,-7.0093l-10.4527,-8.5127l-47.52204,-39.5622z"/>
   <path id="svg_17" fill-opacity="0.92" fill="#4DBBF1" d="m50.01638,60.2876l-5.8357,11.9742l16.2874,-3.4588l-10.4517,-8.5154z"/>
  </g>
 </g>
</svg>