<svg width="71" height="71" xmlns="http://www.w3.org/2000/svg">
    <g id="Layer_1">
        <title>Layer 1</title>
        <g id="svg_3">
            <path d="m55.02666,44.07l0,-6.63l-0.06,0l0,0.02l-0.08,0l0,0.02l-0.1,0l0,0.02l-0.14,0l0,0.02l-0.51,0l0,-0.02l-0.1,0l0,-0.02l-0.08,0l0,-0.02l-0.07,0l0,6.61l-8.34,0l0,-17.81l17.81,0l0,17.81l-8.33,0zm-29.56,9.5l-6.63,0l0,0.02l0,0l0,0.04l0,0l0,0.02l0,0l0,0.03l0,0l0,0.02l0,0l0,0.02l0,0l0,0.02l0,0l0,0.02l0,0l0,0.02l0,0l0,0.02l0,0l0,0.02l0,0l0,0.02l0,0l0,0.02l0,0l0,0.02l0,0l0,0.02l0,0l0,0.02l0,0l0,0.02l0,0l0,0.02l0,0l0,0.02l0,0l0,0.02l0,0l0,0.02l0,0l0,0.02l0,0l0,0.02l0,0l0,0.02l0,0l0,0.02l0,0l0,0.02l0,0l0,0.02l0,0l0,0.02l0,0l0,0.02l0,0l0,0.02l0,0l0,0.02l0,0l0,0.02l0,0l0,0.02l0,0l0,0.02l0,0l0,0.02l0,0l0,0.02l0,0l0,0.02l0,0l0,0.02l0,0l0,0.02l0,0l0,0.02l0,0l0,0.06l0,0l0,0.04l0,0l0,0.02l0,0l0,0.02l0,0l0,0.02l0,0l0,0.02l0,0l0,0.02l0,0l0,0.02l0,0l0,0.02l0,0l0,0.02l0,0l0,0.02l0,0l0,0.02l0,0l0,0.02l0,0l0,0.02l0,0l0,0.02l0,0l0,0.02l0,0l0,0.02l0,0l0,0.02l0,0l0,0.02l6.63,0l0,8.3l-17.81,0l0,-17.81l17.81,0l0,8.37l0,-0.13zm-17.81,-37.93l6.63,0l0,0.02l0,0l0,0.04l0,0l0,0.02l0,0l0,0.03l0,0l0,0.02l0,0l0,0.02l0,0l0,0.02l0,0l0,0.02l0,0l0,0.02l0,0l0,0.02l0,0l0,0.02l0,0l0,0.02l0,0l0,0.02l0,0l0,0.02l0,0l0,0.02l0,0l0,0.02l0,0l0,0.02l0,0l0,0.02l0,0l0,0.02l0,0l0,0.02l0,0l0,0.02l0,0l0,0.02l0,0l0,0.02l0,0l0,0.02l0,0l0,0.02l0,0l0,0.02l0,0l0,0.02l0,0l0,0.02l0,0l0,0.02l0,0l0,0.02l0,0l0,0.02l0,0l0,0.02l0,0l0,0.02l0,0l0,0.02l0,0l0,0.02l0,0l0,0.02l0,0l0,0.02l0,0l0,0.02l0,0l0,0.02l0,0l0,0.02l0,0l0,0.06l0,0l0,0.04l0,0l0,0.02l0,0l0,0.02l0,0l0,0.02l0,0l0,0.02l0,0l0,0.02l0,0l0,0.02l0,0l0,0.02l0,0l0,0.02l0,0l0,0.02l0,0l0,0.02l0,0l0,0.02l0,0l0,0.02l0,0l0,0.02l0,0l0,0.02l0,0l0,0.02l0,0l0,0.02l0,0l0,0.02l-6.63,0l0,8.33l13.96,0c-0.02,0.19 -0.04,0.38 -0.04,0.57s0.01,0.38 0.04,0.57l-4.49,0l0,6.63l-0.06,0l0,-0.02l-0.08,0l0,-0.02l-0.1,0l0,-0.02l-0.14,0l0,-0.02l-0.51,0l0,0.02l-0.1,0l0,0.02l-0.08,0l0,0.02l-0.07,0l0,-6.61l-8.33,0l0,17.81l17.81,0l0,-13.96c0.19,0.02 0.38,0.04 0.57,0.04s0.38,-0.01 0.57,-0.04l0,13.96l17.81,0l0,-8.33l-6.63,0l0,-0.02l0,0l0,-0.02l0,0l0,-0.02l0,0l0,-0.02l0,0l0,-0.02l0,0l0,-0.02l0,0l0,-0.02l0,0l0,-0.02l0,0l0,-0.02l0,0l0,-0.02l0,0l0,-0.02l0,0l0,-0.02l0,0l0,-0.02l0,0l0,-0.02l0,0l0,-0.02l0,0l0,-0.02l0,0l0,-0.04l0,0l0,-0.05l0,0l0,-0.02l0,0l0,-0.02l0,0l0,-0.02l0,0l0,-0.02l0,0l0,-0.02l0,0l0,-0.02l0,0l0,-0.02l0,0l0,-0.02l0,0l0,-0.02l0,0l0,-0.02l0,0l0,-0.02l0,0l0,-0.02l0,0l0,-0.02l0,0l0,-0.02l0,0l0,-0.02l0,0l0,-0.02l0,0l0,-0.02l0,0l0,-0.02l0,0l0,-0.02l0,0l0,-0.02l0,0l0,-0.02l0,0l0,-0.02l0,0l0,-0.02l0,0l0,-0.02l0,0l0,-0.02l0,0l0,-0.02l0,0l0,-0.02l0,0l0,-0.02l0,0l0,-0.02l0,0l0,-0.02l0,0l0,-0.02l0,0l0,-0.02l0,0l0,-0.02l0,0l0,-0.02l0,0l0,-0.02l0,0l0,-0.02l0,0l0,-0.03l0,0l0,-0.02l0,0l0,-0.04l-0.01,0l0,-0.02l6.63,0l0,-8.34l-13.96,0c0.02,-0.19 0.04,-0.38 0.04,-0.57s-0.01,-0.38 -0.04,-0.57l13.96,0l0,-17.83l-8.33,0l0,6.63l-0.06,0l0,-0.02l-0.08,0l0,-0.02l-0.1,0l0,-0.02l-0.14,0l0,-0.02l-0.51,0l0,0.02l-0.1,0l0,0.02l-0.08,0l0,0.02l-0.07,0l0,-6.61l-8.34,0l0,13.96c-0.19,-0.02 -0.38,-0.04 -0.57,-0.04s-0.38,0.01 -0.57,0.04l0,-13.96l-17.8,0l0,8.33zm37.9,52.36l0,1.75c0,0.31 -0.26,0.57 -0.57,0.57l0,0c-0.31,0 -0.57,-0.26 -0.57,-0.57l0,-1.75c0.19,0.02 0.38,0.04 0.57,0.04s0.38,-0.01 0.57,-0.04zm22.79,-61.83l1.75,0c0.31,0 0.57,0.26 0.57,0.57s-0.26,0.57 -0.57,0.57l-1.75,0c0.02,-0.19 0.04,-0.38 0.04,-0.57s-0.01,-0.38 -0.04,-0.57zm-4.99,-3.85l0,-1.75c0,-0.31 0.26,-0.57 0.57,-0.57l0,0c0.31,0 0.57,0.26 0.57,0.57l0,1.75c-0.19,-0.02 -0.38,-0.04 -0.57,-0.04s-0.38,0.01 -0.57,0.04zm-63.01,61.26l0,0c0,-0.31 0.26,-0.57 0.57,-0.57l5.6,0l0,-17.81l-5.6,0c-0.31,0 -0.57,-0.26 -0.57,-0.57l0,0c0,-0.31 0.26,-0.57 0.57,-0.57l5.6,0l0,-17.8l-5.6,0c-0.31,0 -0.57,-0.26 -0.57,-0.57l0,0c0,-0.31 0.26,-0.57 0.57,-0.57l5.6,0l0,-17.81l-5.6,0c-0.31,0 -0.57,-0.26 -0.57,-0.57s0.26,-0.57 0.57,-0.57l5.6,0l0,-5.6c0,-0.31 0.26,-0.57 0.57,-0.57l0,0c0.31,0 0.57,0.26 0.57,0.57l0,5.6l17.81,0l0,-5.6c0,-0.31 0.26,-0.57 0.57,-0.57l0,0c0.31,0 0.57,0.26 0.57,0.57l0,5.6l17.81,0l0,-5.6c0,-0.31 0.26,-0.57 0.57,-0.57l0,0c0.31,0 0.57,0.26 0.57,0.57l0,5.6l13.96,0c-0.02,0.19 -0.04,0.38 -0.04,0.57s0.01,0.38 0.04,0.57l-13.96,0l0,17.81l17.81,0l0,-8.33l-6.63,0l0,-0.02l0,0l0,-0.02l0,0l0,-0.02l0,0l0,-0.02l0,0l0,-0.02l0,0l0,-0.02l0,0l0,-0.02l0,0l0,-0.02l0,0l0,-0.02l0,0l0,-0.02l0,0l0,-0.02l0,0l0,-0.02l0,0l0,-0.02l0,0l0,-0.02l0,0l0,-0.02l0,0l0,-0.02l0,0l0,-0.04l0,0l0,-0.04l0,0l0,-0.02l0,0l0,-0.02l0,0l0,-0.02l0,0l0,-0.02l0,0l0,-0.02l0,0l0,-0.02l0,0l0,-0.02l0,0l0,-0.02l0,0l0,-0.02l0,0l0,-0.02l0,0l0,-0.02l0,0l0,-0.02l0,0l0,-0.02l0,0l0,-0.02l0,0l0,-0.02l0,0l0,-0.02l0,0l0,-0.02l0,0l0,-0.02l0,0l0,-0.02l0,0l0,-0.02l0,0l0,-0.02l0,0l0,-0.02l0,0l0,-0.02l0,0l0,-0.02l0,0l0,-0.02l0,0l0,-0.02l0,0l0,-0.02l0,0l0,-0.02l0,0l0,-0.02l0,0l0,-0.02l0,0l0,-0.02l0,0l0,-0.02l0,0l0,-0.02l0,0l0,-0.02l0,0l0,-0.02l0,0l0,-0.02l0,0l0,-0.03l0,0l0,-0.02l0,0l0,-0.04l-0.01,0l0,-0.02l6.63,0l0,-4.5c0.19,0.02 0.38,0.04 0.57,0.04s0.38,-0.01 0.57,-0.04l0,13.96l5.6,0c0.31,0 0.57,0.26 0.57,0.57l0,0c0,0.31 -0.26,0.57 -0.57,0.57l-5.6,0l0,17.81l5.6,0c0.31,0 0.57,0.26 0.57,0.57l0,0c0,0.31 -0.26,0.57 -0.57,0.57l-5.6,0l0,17.81l5.6,0c0.31,0 0.57,0.26 0.57,0.57l0,0c0,0.31 -0.26,0.57 -0.57,0.57l-5.6,0l0,5.6c0,0.31 -0.26,0.57 -0.57,0.57l0,0c-0.31,0 -0.57,-0.26 -0.57,-0.57l0,-5.6l-13.96,0c0.02,-0.19 0.04,-0.38 0.04,-0.57s-0.01,-0.38 -0.04,-0.57l13.96,0l0,-17.81l-17.81,0l0,8.37l6.63,0l0,0.02l0,0l0,0.04l0,0l0,0.02l0,0l0,0.03l0,0l0,0.02l0,0l0,0.02l0,0l0,0.02l0,0l0,0.02l0,0l0,0.02l0,0l0,0.02l0,0l0,0.02l0,0l0,0.02l0,0l0,0.02l0,0l0,0.02l0,0l0,0.02l0,0l0,0.02l0,0l0,0.02l0,0l0,0.02l0,0l0,0.02l0,0l0,0.02l0,0l0,0.02l0,0l0,0.02l0,0l0,0.02l0,0l0,0.02l0,0l0,0.02l0,0l0,0.02l0,0l0,0.02l0,0l0,0.02l0,0l0,0.02l0,0l0,0.02l0,0l0,0.02l0,0l0,0.02l0,0l0,0.02l0,0l0,0.02l0,0l0,0.02l0,0l0,0.02l0,0l0,0.02l0,0l0,0.02l0,0l0,0.02l0,0l0,0.02l0,0l0,0.06l0,0l0,0.04l0,0l0,0.02l0,0l0,0.02l0,0l0,0.02l0,0l0,0.02l0,0l0,0.02l0,0l0,0.02l0,0l0,0.02l0,0l0,0.02l0,0l0,0.02l0,0l0,0.02l0,0l0,0.02l0,0l0,0.02l0,0l0,0.02l0,0l0,0.02l0,0l0,0.02l0,0l0,0.02l0,0l0,0.02l-6.63,0l0,4.46c-0.19,-0.02 -0.38,-0.04 -0.57,-0.04s-0.38,0.01 -0.57,0.04l0,-13.96l-17.81,0l0,17.81l8.33,0l0,-6.66l0.06,0l0,0.02l0.08,0l0,0.02l0.1,0l0,0.02l0.14,0l0,0.02l0.51,0l0,-0.02l0.1,0l0,-0.02l0.08,0l0,-0.02l0.07,0l0,6.64l4.5,0c-0.02,0.19 -0.04,0.38 -0.04,0.57s0.01,0.38 0.04,0.57l-13.96,0l0,5.6c0,0.31 -0.26,0.57 -0.57,0.57l0,0c-0.31,0 -0.57,-0.26 -0.57,-0.57l0,-5.6l-17.81,0l0,5.6c0,0.31 -0.26,0.57 -0.57,0.57l0,0c-0.31,0 -0.57,-0.26 -0.57,-0.57l0,-5.6l-5.6,0c-0.31,0 -0.57,-0.26 -0.57,-0.57l0,-0.05z" fill="#fff" fill-rule="evenodd"/>
            <path d="m68.05666,8.42c-0.68,1.68 -2.31,2.77 -4.12,2.77c-2.46,0 -4.45,-1.99 -4.45,-4.45s1.99,-4.45 4.45,-4.45s4.45,1.99 4.45,4.45c0,0.58 -0.11,1.15 -0.33,1.68zm-37.9,18.95c-0.68,1.68 -2.31,2.77 -4.12,2.77c-2.46,0 -4.45,-1.99 -4.45,-4.45s1.99,-4.45 4.45,-4.45s4.45,1.99 4.45,4.45c0,0.58 -0.11,1.15 -0.33,1.68zm18.95,37.9c-0.68,1.68 -2.31,2.77 -4.12,2.77c-2.46,0 -4.45,-1.99 -4.45,-4.45s1.99,-4.45 4.45,-4.45s4.45,1.99 4.45,4.45c0,0.58 -0.11,1.15 -0.33,1.68zm7.69,-30.11c0,-1.29 -1.05,-2.34 -2.34,-2.34s-2.34,1.05 -2.34,2.34s1.05,2.34 2.34,2.34s2.34,-1.05 2.34,-2.34zm-21.29,-2.34c-1.29,0 -2.34,1.05 -2.34,2.34s1.05,2.34 2.34,2.34s2.34,-1.05 2.34,-2.34s-1.05,-2.34 -2.34,-2.34zm2.34,21.26c0,-1.29 -1.05,-2.34 -2.34,-2.34s-2.34,1.05 -2.34,2.34s1.05,2.34 2.34,2.34s2.34,-1.05 2.34,-2.34zm-21.29,-2.28c-1.29,0 -2.34,1.05 -2.34,2.34s1.05,2.34 2.34,2.34s2.34,-1.05 2.34,-2.34s-1.05,-2.34 -2.34,-2.34zm2.34,-16.63c0,1.29 -1.05,2.34 -2.34,2.34s-2.34,-1.05 -2.34,-2.34s1.05,-2.34 2.34,-2.34s2.34,1.05 2.34,2.34zm-2.34,-21.29c1.29,0 2.34,1.05 2.34,2.34s-1.05,2.34 -2.34,2.34s-2.34,-1.05 -2.34,-2.34s1.05,-2.34 2.34,-2.34zm21.29,2.34c0,1.29 -1.05,2.34 -2.34,2.34s-2.34,-1.05 -2.34,-2.34s1.05,-2.34 2.34,-2.34s2.34,1.05 2.34,2.34zm16.6,-2.34c-1.29,0 -2.34,1.05 -2.34,2.34s1.05,2.34 2.34,2.34s2.34,-1.05 2.34,-2.34s-1.05,-2.34 -2.34,-2.34zm0,37.93c1.29,0 2.34,1.05 2.34,2.34s-1.05,2.34 -2.34,2.34s-2.34,-1.05 -2.34,-2.34s1.05,-2.34 2.34,-2.34z" fill-rule="evenodd" fill="#e30713"/>
        </g>
    </g>
</svg>